<?xml version="1.0" encoding="utf-8"?>
<!-- Generator: Adobe Illustrator 15.0.2, SVG Export Plug-In . SVG Version: 6.00 Build 0)  -->
<!DOCTYPE svg PUBLIC "-//W3C//DTD SVG 1.1//EN" "http://www.w3.org/Graphics/SVG/1.1/DTD/svg11.dtd">
<svg version="1.1" id="Layer_1" xmlns="http://www.w3.org/2000/svg" xmlns:xlink="http://www.w3.org/1999/xlink" x="0px" y="0px"
	 width="841.89px" height="595.28px" viewBox="0 0 841.89 595.28" enable-background="new 0 0 841.89 595.28" xml:space="preserve">
<g>
	<rect fill="#FFFFFF" width="841.89" height="595.28"/>
	<g>
		<g>
			<g>
				<g>
					<g>
						<g>
							<g>
								<path fill="#B3C1B0" d="M461.903,422.14c0,45.827,7.628,82.98,17.019,82.98c17.021,0,34.047,0,51.058,0
									c9.401,0,17.021-37.153,17.021-82.98c0-62.447,0-124.925,0-187.346c0-45.84-7.62-82.986-17.021-82.986
									c-17.011,0-34.037,0-51.058,0c-9.398,0-17.019,37.146-17.019,82.986C461.903,297.214,461.903,359.692,461.903,422.14z"/>
							</g>
						</g>
						<rect x="364.591" y="411.534" fill="#F0F6EA" width="281.029" height="93.586"/>
						<path opacity="0.5" fill="#D6E3CD" d="M449.558,437.235c-31.594,0-60.862,9.732-84.967,26.245v41.64h210.498
							C548.683,464.331,502.344,437.235,449.558,437.235z"/>
					</g>
				</g>
				<g>
					<path fill="#F0F6EA" d="M681.53,294.399c-6.886,36.978-41.723,64.74-77.796,62.019c-66.188-4.486-132.379-8.973-198.552-13.438
						c-36.083-2.729-70.893-29.081-77.81-58.872c-8.74-40.955-17.479-81.891-26.232-122.841
						c-6.871-29.792,26.398-56.759,74.361-60.21c85.965-5.822,171.946-11.629,257.911-17.457
						c47.944-3.456,81.234,23.708,74.346,60.692C699.021,194.319,690.277,244.366,681.53,294.399z"/>
					<path opacity="0.5" fill="#D6E3CD" d="M364.535,264.036c-17.247-0.254-31.248,6.022-38.108,15.581
						c0.302,1.497,0.621,2.989,0.946,4.492c5.892,26.139,33.633,49.385,64.29,56.806c17.409-4.004,29.255-18.212,27.588-35.911
						C417.296,282.689,392.778,264.355,364.535,264.036z"/>
					<path opacity="0.5" fill="#D6E3CD" d="M633.412,83.601c-7.208,0.496-14.416,0.981-21.611,1.466
						c-20.399,12.467-33.638,30.244-34.852,49.447c-1.729,32.893,30.002,59.003,70.832,58.357
						c20.031-0.42,39.198-7.439,54.784-18.809c1.726-9.935,3.47-19.86,5.192-29.769C714.646,107.309,681.356,80.145,633.412,83.601z
						"/>
					<path fill="#B5BFAB" d="M643.326,278.414c-4.258,28.876-31.831,50.924-61.59,49.25c-54.457-2.74-108.896-5.496-163.354-8.243
						c-29.75-1.677-57.552-22.726-62.073-47.033c-5.752-33.331-11.509-66.668-17.255-99.983
						c-4.538-24.328,22.059-45.841,59.404-48.114c67.047-3.812,134.097-7.631,201.165-11.453
						c37.348-2.26,64.156,19.304,59.886,48.188C654.123,200.152,648.729,239.293,643.326,278.414z"/>
					<path fill="#212823" d="M653,277.324c-4.44,28.378-32.645,50.034-63.008,48.368c-55.55-2.724-111.104-5.451-166.648-8.173
						c-30.356-1.647-58.488-22.32-62.788-46.137c-5.469-32.68-10.918-65.381-16.383-98.066
						c-4.307-23.822,22.942-44.969,60.84-47.229c68.108-3.809,136.198-7.618,204.297-11.433
						c37.897-2.268,65.043,18.908,60.614,47.291C664.286,200.406,658.633,238.87,653,277.324z"/>
					<path opacity="0.5" fill="#353936" d="M576.041,116.523c-57.011,3.184-114.016,6.372-171.027,9.564
						c-34.476,2.023-60.329,19.867-61.193,40.97c1.221,3.834,2.836,7.727,4.921,11.642c28.519,52.493,79.277,74.717,133.551,58.139
						c55.758-17.563,116.507-42.649,125.627-69.618C612.603,153.526,601.479,133.502,576.041,116.523z"/>
					<path fill="#353936" d="M477.038,177.561c0.355,19.823-21.209,36.097-48.15,36.359c-26.927,0.251-50.947-14.626-53.646-33.236
						c-2.686-18.614,18.888-34.888,48.166-36.362C452.682,142.849,476.68,157.731,477.038,177.561z"/>
				</g>
			</g>
			<g>
				<g>
					<path fill="#F5F5F5" d="M434.277,148.155h20.612v47.109h10.111v15.094H454.89v25.025h-20.612v-25.025h-30.078v-16.269
						L434.277,148.155z M434.277,173.041l-14.318,22.223h14.318V173.041z"/>
					<path fill="#F5F5F5" d="M501.882,146.72c9.375,0,16.887,3.931,22.524,11.793c5.641,7.862,8.459,19.396,8.459,34.595
						c0,13.329-2.811,23.946-8.428,31.852c-5.617,7.909-12.986,11.858-22.102,11.858c-6.655,0-12.468-2.112-17.437-6.336
						s-8.479-9.844-10.534-16.855c-2.053-7.016-3.077-14.528-3.077-22.542c0-13.417,2.852-24.165,8.558-32.244
						C485.549,150.76,492.894,146.72,501.882,146.72z M502.206,162.794c-3.414,0-5.973,2.343-7.68,7.029
						c-1.708,4.688-2.562,11.723-2.562,21.098c0,9.899,0.844,17.322,2.527,22.272c1.685,4.948,4.214,7.424,7.584,7.424
						c3.327,0,5.812-2.397,7.455-7.198c1.643-4.795,2.462-11.99,2.462-21.585c0-9.681-0.81-16.94-2.429-21.78
						C507.943,165.212,505.488,162.794,502.206,162.794z"/>
					<path fill="#F5F5F5" d="M569.746,148.155h20.612v47.109h10.114v15.094h-10.114v25.025h-20.612v-25.025h-30.075v-16.269
						L569.746,148.155z M569.746,173.041l-14.317,22.223h14.317V173.041z"/>
				</g>
				<g>
					<path fill="#F5F5F5" d="M415.14,242.941h26.938v9.595H426.15v8.778h14.842v9.289H426.15v10.246h15.927v9.733H415.14V242.941z"
						/>
					<path fill="#F5F5F5" d="M447.259,242.941h16.975c3.84,0,6.951,1.001,9.333,3.004c2.382,2.006,3.575,4.85,3.575,8.539
						c0,3.028-0.854,5.605-2.559,7.735c-1.704,2.128-4.263,3.807-7.672,5.036c4.268,0.686,6.909,3.415,7.927,8.197l3.217,15.13
						h-12.06l-1.765-13.184c-0.316-2.231-0.841-3.858-1.575-4.883s-1.855-1.536-3.37-1.536h-1.015v19.603h-11.012V242.941z
						 M458.271,252.197v10.212h2.405c1.715,0,3.025-0.514,3.931-1.539c0.903-1.025,1.354-2.322,1.354-3.892
						c0-1.596-0.395-2.789-1.186-3.586c-0.791-0.799-1.987-1.196-3.591-1.196H458.271z"/>
					<path fill="#F5F5F5" d="M481.952,242.941h16.975c3.84,0,6.951,1.001,9.333,3.004c2.385,2.006,3.575,4.85,3.575,8.539
						c0,3.028-0.854,5.605-2.559,7.735c-1.704,2.128-4.263,3.807-7.672,5.036c4.269,0.686,6.909,3.415,7.927,8.197l3.22,15.13
						h-12.062l-1.765-13.184c-0.316-2.231-0.841-3.858-1.575-4.883c-0.733-1.025-1.857-1.536-3.37-1.536h-1.015v19.603h-11.012
						V242.941z M492.964,252.197v10.212h2.405c1.715,0,3.025-0.514,3.932-1.539c0.902-1.025,1.354-2.322,1.354-3.892
						c0-1.596-0.394-2.789-1.186-3.586c-0.791-0.799-1.987-1.196-3.591-1.196H492.964z"/>
					<path fill="#F5F5F5" d="M531.213,242.158c5.716,0,10.223,2.172,13.521,6.521c3.295,4.349,4.945,10.291,4.945,17.828
						c0,7.558-1.66,13.586-4.979,18.083c-3.321,4.497-7.623,6.744-12.908,6.744c-5.49,0-9.735-2.333-12.74-7
						c-3.004-4.668-4.507-10.485-4.507-17.452c0-4.826,0.734-9.157,2.203-12.992c1.469-3.837,3.523-6.751,6.168-8.744
						C525.556,243.151,528.322,242.158,531.213,242.158z M532.4,252.197c-2.216,0-3.91,1.287-5.083,3.858
						c-1.173,2.574-1.762,6.09-1.762,10.553c0,4.53,0.571,8.088,1.71,10.672c1.142,2.587,2.717,3.876,4.728,3.876
						c1.988,0,3.578-1.331,4.777-3.996c1.198-2.662,1.795-6.217,1.795-10.654c0-4.601-0.604-8.134-1.811-10.604
						C535.546,253.432,534.095,252.197,532.4,252.197z"/>
					<path fill="#F5F5F5" d="M554.287,242.941h16.975c3.84,0,6.948,1.001,9.333,3.004c2.382,2.006,3.575,4.85,3.575,8.539
						c0,3.028-0.854,5.605-2.559,7.735c-1.704,2.128-4.263,3.807-7.675,5.036c4.271,0.686,6.912,3.415,7.93,8.197l3.217,15.13
						h-12.062l-1.762-13.184c-0.316-2.231-0.841-3.858-1.575-4.883s-1.857-1.536-3.37-1.536h-1.018v19.603h-11.009V242.941z
						 M565.296,252.197v10.212h2.405c1.718,0,3.028-0.514,3.932-1.539c0.905-1.025,1.356-2.322,1.356-3.892
						c0-1.596-0.396-2.789-1.186-3.586c-0.791-0.799-1.987-1.196-3.591-1.196H565.296z"/>
				</g>
			</g>
		</g>
		<g>
			<g>
				<g>
					<path fill="#FADCA0" d="M415.79,188.365c-2.778-2.655-17.535,18.853-17.535,18.853s4.716-26.398-0.088-27.46
						c-4.804-1.053-10.318,25.716-10.318,25.716s-6.958-24.273-11.343-22.745c-4.377,1.525,0.933,22.33,0.939,24.372
						c-0.005,2.047-0.961,8.334-0.961,8.334l0.47,0.399c-1.187-0.2-2.707-0.451-4.912-0.822
						c-6.584-17.185-12.722-11.453-12.722-11.453c-5.553,3.83,5.535,15.062,5.535,15.062c1.813,2.138,6.716,10.911,9.048,14.51
						c2.315,3.62,5.617,7.797,11.008,8.271c5.372,0.488,13.106-1.186,15.145-2.597c2.038-1.409,4.47-4.732,5.867-9.097
						c1.428-4.362,4.411-9.427,6.519-10.286c2.105-0.843,12.87-7.864,11.67-11.162c-1.212-3.282-17.656,3.926-17.656,3.926
						S418.564,191.019,415.79,188.365z"/>
					<path fill="#F4D39A" d="M407.397,210.502c-1.921,0.784-3.298,1.419-3.298,1.419s10.407-18.863,8.055-21.209
						c-0.162-0.161-0.379-0.213-0.633-0.182c-5.329,5.119-13.267,16.687-13.267,16.687s0.116-0.657,0.293-1.757
						c-0.871,1.266-1.412,2.083-1.412,2.083s4.139-23.474,0.053-24.398c-4.085-0.913-8.906,22.896-8.906,22.896
						s-0.114-0.423-0.318-1.134c-0.074,0.358-0.117,0.566-0.117,0.566s-3.267-11.394-6.732-18.075
						c-0.835-1.163-1.65-1.783-2.386-1.513c-3.734,1.378,0.692,19.836,0.688,21.647c-0.012,1.824-0.855,7.411-0.855,7.411
						l0.397,0.353c-0.651-0.109-1.424-0.241-2.395-0.405c-0.05,0.335-0.082,0.542-0.082,0.542l0.47,0.399
						c-1.187-0.2-2.707-0.451-4.912-0.822c-2.473-6.451-4.88-9.67-6.926-11.178c-0.707,0.241-1.116,0.638-1.116,0.638
						c-4.743,3.428,4.646,13.358,4.646,13.358c1.535,1.891,5.668,9.663,7.636,12.852c1.957,3.202,4.746,6.899,9.336,7.298
						c4.572,0.41,11.166-1.116,12.91-2.376c1.74-1.264,3.829-4.232,5.035-8.111c1.238-3.884,3.803-8.394,5.599-9.17
						c1.797-0.76,10.993-7.047,9.989-9.969c-0.072-0.208-0.216-0.361-0.406-0.478c-5.211,1.207-12.289,4.31-12.289,4.31
						S406.818,211.548,407.397,210.502z"/>
					<g>
						<path fill="#EFA470" d="M388.98,240.253c-0.25-0.031-0.48-0.185-0.601-0.426c-4.248-8.695,6.111-17.623,6.554-18.002
							c0.322-0.275,0.81-0.233,1.086,0.091c0.275,0.324,0.235,0.807-0.088,1.087c-0.101,0.08-9.89,8.528-6.169,16.144
							c0.188,0.384,0.028,0.843-0.352,1.03C389.269,240.248,389.121,240.271,388.98,240.253z"/>
					</g>
				</g>
				<g>
					<path fill="#4B749C" d="M376.338,235.907c0,0,16.829,8.415,26.232-1.484c0,0,3.464,52.462-19.303,69.787
						c0,0-31.166,12.151-70.274-35.748l13.252-19.203c0,0,34.255,37.625,46.134,32.678
						C372.379,281.937,373.863,242.837,376.338,235.907z"/>
					<path fill="#4B749C" d="M379.804,303.718c0,0,12.868,3.957,14.353-13.862L379.804,303.718z"/>
					<path fill="#597FA5" d="M386.731,297.775c0,0,14.973-41.3,12.759-60.879c-9.578,5.792-23.152-0.988-23.152-0.988
						c-2.475,6.93-3.959,46.03-3.959,46.03c-11.878,4.948-46.134-32.678-46.134-32.678l-7.435,10.773
						C328.98,273.278,364.076,315.398,386.731,297.775z"/>
					<path fill="#6387A5" d="M372.379,281.937c-11.878,4.948-46.134-32.678-46.134-32.678l-1.699,2.462
						c5.415,7.859,25.323,34.1,49.318,33.679c0,0,7.852-39.266,5.705-48.17c-1.988-0.703-3.23-1.323-3.23-1.323
						C373.863,242.837,372.379,281.937,372.379,281.937z"/>
				</g>
			</g>
			<g>
				<g>
					<path fill="#FADCA0" d="M141.644,189.849c2.779-2.654,17.535,18.853,17.535,18.853s-4.714-26.398,0.09-27.459
						c4.804-1.054,10.316,25.716,10.316,25.716s6.958-24.273,11.342-22.745c4.377,1.526-0.933,22.333-0.938,24.372
						c0.004,2.05,0.961,8.334,0.961,8.334l-0.469,0.4c1.186-0.2,2.705-0.452,4.91-0.82c6.585-17.185,12.722-11.456,12.722-11.456
						c5.554,3.83-5.533,15.062-5.533,15.062c-1.815,2.138-6.717,10.911-9.049,14.512c-2.316,3.617-5.617,7.794-11.007,8.269
						c-5.372,0.49-13.107-1.186-15.146-2.597c-2.039-1.409-4.468-4.733-5.867-9.097c-1.429-4.361-4.411-9.424-6.52-10.285
						c-2.105-0.843-12.87-7.865-11.669-11.16c1.212-3.285,17.656,3.923,17.656,3.923S138.868,192.503,141.644,189.849z"/>
					<path fill="#F4D39A" d="M150.036,211.989c1.921,0.781,3.298,1.417,3.298,1.417s-10.408-18.863-8.056-21.209
						c0.163-0.161,0.379-0.212,0.635-0.182c5.327,5.12,13.265,16.687,13.265,16.687s-0.115-0.654-0.292-1.756
						c0.869,1.266,1.41,2.086,1.41,2.086s-4.138-23.477-0.053-24.4c4.086-0.914,8.906,22.898,8.906,22.898s0.114-0.425,0.319-1.134
						c0.074,0.358,0.116,0.563,0.116,0.563s3.267-11.391,6.733-18.075c0.834-1.162,1.65-1.782,2.385-1.51
						c3.734,1.375-0.693,19.836-0.688,21.647c0.012,1.824,0.855,7.408,0.855,7.408l-0.396,0.353
						c0.651-0.109,1.423-0.241,2.394-0.405c0.051,0.334,0.083,0.542,0.083,0.542l-0.469,0.4c1.186-0.2,2.705-0.452,4.91-0.82
						c2.473-6.453,4.881-9.673,6.927-11.181c0.707,0.241,1.116,0.638,1.116,0.638c4.743,3.428-4.646,13.36-4.646,13.36
						c-1.535,1.889-5.668,9.66-7.636,12.852c-1.956,3.202-4.746,6.899-9.335,7.296c-4.572,0.413-11.167-1.113-12.91-2.376
						c-1.74-1.261-3.828-4.229-5.034-8.111c-1.239-3.881-3.804-8.394-5.601-9.167c-1.797-0.76-10.992-7.047-9.988-9.971
						c0.071-0.205,0.215-0.361,0.406-0.478c5.211,1.207,12.289,4.31,12.289,4.31S150.614,213.035,150.036,211.989z"/>
					<g>
						<path fill="#EFA470" d="M168.453,241.737c0.25-0.031,0.48-0.184,0.601-0.425c4.248-8.695-6.112-17.624-6.554-18
							c-0.322-0.275-0.81-0.236-1.086,0.088c-0.273,0.325-0.235,0.81,0.088,1.087c0.101,0.081,9.89,8.529,6.169,16.144
							c-0.187,0.384-0.027,0.843,0.352,1.033C168.164,241.732,168.312,241.755,168.453,241.737z"/>
					</g>
				</g>
				<g>
					<path fill="#4B749C" d="M181.094,237.391c0,0-16.829,8.415-26.232-1.484c0,0-3.464,52.464,19.303,69.787
						c0,0,31.166,12.151,70.274-35.748l-13.251-19.201c0,0-34.256,37.625-46.135,32.675
						C185.054,283.421,183.57,244.322,181.094,237.391z"/>
					<path fill="#4B749C" d="M177.629,305.201c0,0-12.867,3.957-14.353-13.861L177.629,305.201z"/>
					<path fill="#597FA5" d="M170.701,299.262c0,0-14.972-41.3-12.759-60.882c9.58,5.792,23.152-0.989,23.152-0.989
						c2.476,6.931,3.96,46.03,3.96,46.03c11.878,4.951,46.135-32.675,46.135-32.675l7.434,10.771
						C228.454,274.763,193.357,316.883,170.701,299.262z"/>
					<path fill="#6387A5" d="M185.054,283.421c11.878,4.951,46.135-32.675,46.135-32.675l1.699,2.462
						c-5.416,7.857-25.324,34.1-49.32,33.676c0,0-7.852-39.265-5.704-48.17c1.989-0.704,3.23-1.324,3.23-1.324
						C183.57,244.322,185.054,283.421,185.054,283.421z"/>
				</g>
			</g>
			<g>
				<g>
					<g>
						<path fill="#242D41" d="M278.682,500.994c-1.244-9.488-18.132-23.809-22.672-27.501c1.388-2.908,3.621-4.834,3.621-4.834
							l-13.108-12.468c0,0-14.294,10.989-17.264,18.158l8.185,7.778l3.073-3.225c0,0-1.841,2.097,1.854,7.908
							c3.692,5.81,23.124,26.979,27.43,26.085C273.939,512.032,279.729,505.325,278.682,500.994z"/>
						<path fill="#303949" d="M278.682,500.994c-1.244-9.488-18.132-23.809-22.672-27.501c1.388-2.908,3.621-4.834,3.621-4.834
							l-11.18-10.628l-12.109,11.121l3.979,5.703l3.631,0.449c0,0,5.902,20.589,28.504,36.4
							C276.011,509.396,279.519,504.442,278.682,500.994z"/>
						<path fill="#3F4854" d="M274.998,509.593c-15.715-9.322-27.785-36.678-27.785-36.678l-5.231-2.084l-0.781-2.434l8.955-8.752
							l-1.086-1.033c-0.388-0.036-0.772-0.075-1.143-0.105l-11.585,10.646l3.979,5.703l3.631,0.449c0,0,5.902,20.589,28.504,36.4
							C273.325,511.143,274.192,510.416,274.998,509.593z"/>
					</g>
					<g>
						<path fill="#597FA5" d="M244.548,444.399c-0.38-2.624,1.776-5.473,7.105-8.565c0.158-6.038,7.209-15.135,13.259-21.855
							c2.684-3.934,5.243-7.55,6.084-8.954c1.932-3.212-1.265-3.401,0.467-5.736c1.737-2.336,2.108-3.944,2.886-7.294
							c0.773-3.355,8.561-32.478,8.561-32.478c10.315-11.37,36.778-0.164,36.778-0.164s-4.256,6.954-8.097,16.386
							c-3.439,8.453-8.219,23.378-10.979,28.646c0.126-0.096,0.244-0.187,0.374-0.285c0,0-0.247,13.912-16.133,24.579
							c0,0-6.056,17.719-11.934,21.871c-1.007,3.653-5.122,8.785-9.903,11.943c0,0,3.353,6.186-2.257,10.708
							c-5.618,4.527-23.012-0.13-27.017-8.104c-2.35-4.684-0.171-7.06,2.618-8.702c-0.556-3.072,1.252-4.432,3.307-5.014
							C238.569,448.369,238.952,445.245,244.548,444.399z"/>
						<path fill="#52799A" d="M245.34,452.793c0,0,0.482-10.034,9.851-13.915c0,0,14.098-25.747,22.09-34.242
							c0,0,5.806-33.199,11.496-48.929c7.566-2.709,17.772-0.597,24.346,1.362c-3.545,8.617-15.332,37.781-14.494,43.168
							c0,0-4.078,19.649-16.668,24.338c0,0-6.178,20.434-10.691,20.537c0,0-10.115,14.406-12.644,14.953
							c0,0,1.456,8.526-6.009,8.939c0,0-5.955-1.331-5.345-5.501c0,0-10.694,1.225-8.297-5.188
							C238.974,458.316,240.945,451.667,245.34,452.793z"/>
						<path fill="#638AAA" d="M302.442,354.771l-7.56,22.817c0,0-9.075,10.478-5.563,16.262c0,0-2.635,21.084-13.287,24.26
							c0,0-11.519,14.933-10.101,21.5c0,0-9.075,15.345-19.471,23.954c-2.431,0.138-9.48,0.088-7.486-5.247
							c0,0,1.971-6.649,6.366-5.523c0,0,0.482-10.034,9.851-13.915c0,0,14.098-25.747,22.09-34.242c0,0,5.806-33.199,11.496-48.929
							C292.892,354.233,297.779,354.192,302.442,354.771z"/>
					</g>
				</g>
				<g>
					<g>
						<path fill="#242D41" d="M234.137,498.023c-1.245-9.486-18.132-23.809-22.671-27.501c1.387-2.909,3.621-4.834,3.621-4.834
							l-13.108-12.468c0,0-14.295,10.991-17.265,18.158l8.186,7.778l3.072-3.225c0,0-1.84,2.096,1.855,7.908
							c3.691,5.812,23.124,26.982,27.429,26.085C229.393,509.063,235.183,502.356,234.137,498.023z"/>
						<path fill="#303949" d="M234.137,498.023c-1.245-9.486-18.132-23.809-22.671-27.501c1.387-2.909,3.621-4.834,3.621-4.834
							l-11.182-10.628l-12.109,11.121l3.979,5.705l3.631,0.447c0,0,5.901,20.591,28.505,36.4
							C231.465,506.425,234.973,501.475,234.137,498.023z"/>
						<path fill="#3F4854" d="M230.452,506.622c-15.714-9.322-27.784-36.679-27.784-36.679l-5.232-2.08l-0.779-2.435l8.953-8.752
							l-1.086-1.032c-0.388-0.036-0.771-0.075-1.143-0.109l-11.585,10.646l3.979,5.705l3.631,0.447c0,0,5.901,20.591,28.505,36.4
							C228.78,508.171,229.647,507.445,230.452,506.622z"/>
					</g>
					<g>
						<path fill="#597FA5" d="M200.002,441.431c-0.38-2.626,1.776-5.472,7.105-8.567c0.158-6.038,7.209-15.133,13.259-21.853
							c2.685-3.937,5.243-7.554,6.084-8.954c1.932-3.215-1.265-3.404,0.467-5.737c1.737-2.335,2.108-3.944,2.885-7.294
							c0.773-3.354,8.561-32.478,8.561-32.478c10.317-11.372,36.78-0.163,36.78-0.163s-4.258,6.951-8.098,16.383
							c-3.439,8.453-8.219,23.381-10.979,28.647c0.125-0.096,0.244-0.189,0.374-0.285c0,0-0.247,13.913-16.132,24.58
							c0,0-6.056,17.719-11.935,21.867c-1.007,3.656-5.122,8.788-9.902,11.943c0,0,3.354,6.187-2.258,10.711
							c-5.617,4.525-23.012-0.13-27.017-8.105c-2.35-4.681-0.171-7.061,2.62-8.7c-0.558-3.072,1.25-4.432,3.305-5.016
							C194.024,445.4,194.406,442.276,200.002,441.431z"/>
						<path fill="#52799A" d="M200.796,449.822c0,0,0.481-10.034,9.85-13.916c0,0,14.1-25.744,22.09-34.239
							c0,0,5.807-33.202,11.496-48.928c7.567-2.709,17.772-0.6,24.347,1.359c-3.547,8.619-15.333,37.784-14.495,43.168
							c0,0-4.078,19.652-16.668,24.341c0,0-6.177,20.433-10.691,20.534c0,0-10.116,14.408-12.644,14.956
							c0,0,1.456,8.523-6.009,8.936c0,0-5.955-1.328-5.345-5.5c0,0-10.694,1.227-8.296-5.185
							C194.429,455.349,196.399,448.698,200.796,449.822z"/>
						<path fill="#638AAA" d="M257.897,351.8l-7.561,22.817c0,0-9.075,10.478-5.563,16.261c0,0-2.634,21.088-13.288,24.264
							c0,0-11.519,14.932-10.101,21.497c0,0-9.075,15.348-19.471,23.956c-2.431,0.136-9.479,0.086-7.485-5.246
							c0,0,1.971-6.65,6.367-5.526c0,0,0.481-10.034,9.85-13.916c0,0,14.1-25.744,22.09-34.239c0,0,5.807-33.202,11.496-48.928
							C248.346,351.266,253.233,351.224,257.897,351.8z"/>
					</g>
				</g>
				<g>
					<g>
						<path fill="#597FA5" d="M239.882,356.883c3.847,7.8,21.244,18.262,39.08,18.433c17.833-0.171,35.232-10.633,39.075-18.433
							c3.859-7.859-13.651-14.691-39.075-14.922C253.533,342.191,236.025,349.023,239.882,356.883z"/>
						<path fill="#52799A" d="M278.962,375.315c-13.176-0.127-26.092-5.869-33.504-12.003c26.288-20.316,55.292-5.966,66.048,0.758
							C303.973,369.91,291.588,375.196,278.962,375.315z"/>
						<path fill="#638AAA" d="M287.375,365.168c8.293-0.275,13.514,1.294,16.784,3.567c-7.129,3.724-16.1,6.492-25.196,6.58
							c-10.051-0.096-19.961-3.462-27.386-7.773C262.125,360.863,287.375,365.168,287.375,365.168z"/>
					</g>
					<g>
						<polygon fill="#F0E3D2" points="326.718,250.749 310.808,352.915 239.783,352.915 230.874,250.71 						"/>
						<g>
							<path fill="#FADCA0" d="M295.646,262.142c-5.058,8.207-8.486,12.195-18.124,16.647c-7.762-3.505-15.751-11.098-18.024-18.158
								c-1.894-5.882,0.823-9.206,2.9-10.381c7.992-4.53-0.654-25.189,5.75-30.36c4.818-3.892,12.801-4.25,18.349-1.951
								c10.973,4.543,0.143,29.647,10.667,34.177C299.257,253.017,299.716,255.536,295.646,262.142z"/>
							<path fill="#F4D39A" d="M293.128,260.435c-4.301,7.242-7.216,10.758-15.417,14.688c-6.602-3.095-13.399-9.792-15.333-16.02
								c-1.609-5.189,0.701-8.121,2.467-9.159c6.797-3.999-0.555-22.224,4.893-26.785c4.097-3.435,10.889-3.751,15.608-1.723
								c9.333,4.009,0.122,26.157,9.074,30.153C296.2,252.386,296.592,254.607,293.128,260.435z"/>
						</g>
						<g>
							<path fill="#E0D0BD" d="M291.714,250.134c0,0-3.896,17.265-12.68,21.915l0.535,9.688c0,0,20.657-8.789,24.444-19.66
								L291.714,250.134z"/>
							<path fill="#F0E3D2" d="M293.294,253.987l8.234,7.577c0,0-7.762,14.354-19.347,18.145l-1.234-6.824
								C280.947,272.884,291.69,265.227,293.294,253.987z"/>
						</g>
						<g>
							<path fill="#E0D0BD" d="M266.456,250.134c0,0,3.896,17.265,12.68,21.915l-0.535,9.688c0,0-20.656-8.789-24.444-19.66
								L266.456,250.134z"/>
							<path fill="#F0E3D2" d="M264.875,253.987l-8.234,7.577c0,0,7.762,14.354,19.347,18.145l1.234-6.824
								C277.223,272.884,266.479,265.227,264.875,253.987z"/>
						</g>
						<g>
							<path fill="#5177A5" d="M294.288,250.25c0,0,31.446-5.976,36.396-0.529c0,0-6.93,104.93-12.87,115.325
								c0,0-12.744,3.956-29.449-11.262C288.365,353.784,298.354,252.142,294.288,250.25z"/>
							<path fill="#4B749C" d="M330.684,249.721c-4.949-5.446-36.396,0.529-36.396,0.529c0.879,0.41,1.1,5.511,0.905,13.241
								c5.811-2.138,17.385,5.106,13.735,101.547c5.524,1.043,8.886,0.008,8.886,0.008
								C323.753,354.651,330.684,249.721,330.684,249.721z"/>
							<path fill="#597FA5" d="M314.35,282.386c8.415-7.919,11.384-24.748,11.384-24.748c-3.465-10.392-28.212-1.484-28.212-1.484
								c-0.812-0.355-1.58-0.581-2.315-0.711c0.547,15.179-3.268,59.774-5.427,83.345l9.723,5.47
								c17.817-8.91,19.797-51.477,19.797-51.477C319.795,288.325,314.35,282.386,314.35,282.386z"/>
							<g>
								<path fill="#538BC3" d="M286.351,248.771c0,0,13.036,25.184,7.188,40.083c0,0-0.795,31.215-4.429,44.118l7.714,5.896
									c0,0,22.299-38.534,14.208-45.294l-7.718-5.895l10.928-15.055c0,0-6.676-17.667-21.574-23.518L286.351,248.771z"/>
								<path fill="#4983B3" d="M290.327,252.57l5.188,0.472c0,0,12.732,9.904,15.562,18.391l-9.43,15.091l-5.188-0.47
									C296.458,286.055,298.343,258.229,290.327,252.57z"/>
								<path fill="#4983B3" d="M295.985,290.297l-1.416,19.336l9.435,4.245c0,0,7.073-12.731,5.185-17.45
									C309.189,296.428,300.231,291.711,295.985,290.297z"/>
								<polygon fill="#4983B3" points="295.043,312.464 291.27,330.855 295.985,333.684 304.004,317.65 								"/>
								<path fill="#3E7AA4" d="M310.778,271.911c-0.867-1.931-1.801-4.001-2.761-6.134c-4.751-6.692-12.502-12.735-12.502-12.735
									l-5.188-0.472c4.228,2.984,5.699,12.133,6.148,20.114c3.544,0.371,8.141,1.181,11.972,2.956L310.778,271.911z"/>
							</g>
							<g>
								<circle fill="#24455B" cx="293.81" cy="342.523" r="3.217"/>
								<circle fill="#32596D" cx="293.811" cy="342.523" r="2.277"/>
							</g>
							<g>
								<circle fill="#24455B" cx="292.324" cy="351.434" r="3.217"/>
								<circle fill="#32596D" cx="292.325" cy="351.434" r="2.277"/>
							</g>
						</g>
						<g>
							<path fill="#5177A5" d="M262.398,250.25c0,0-31.448-5.976-36.396-0.529c0,0,6.929,104.93,12.869,115.325
								c0,0,12.745,3.956,29.45-11.262C268.32,353.784,258.332,252.142,262.398,250.25z"/>
							<path fill="#4B749C" d="M226.002,249.721c4.948-5.446,36.396,0.529,36.396,0.529c-0.88,0.41-1.1,5.511-0.907,13.241
								c-5.81-2.138-17.385,5.106-13.734,101.547c-5.525,1.043-8.887,0.008-8.887,0.008
								C232.931,354.651,226.002,249.721,226.002,249.721z"/>
							<path fill="#597FA5" d="M242.334,282.386c-8.415-7.919-11.384-24.748-11.384-24.748c3.466-10.392,28.212-1.484,28.212-1.484
								c0.812-0.355,1.582-0.581,2.316-0.711c-0.546,15.179,3.27,59.774,5.428,83.345l-9.723,5.47
								c-17.819-8.91-19.797-51.477-19.797-51.477C236.889,288.325,242.334,282.386,242.334,282.386z"/>
							<g>
								<path fill="#538BC3" d="M270.333,248.771c0,0-13.036,25.184-7.186,40.083c0,0,0.794,31.215,4.428,44.118l-7.714,5.896
									c0,0-22.298-38.534-14.207-45.294l7.717-5.895l-10.928-15.055c0,0,6.676-17.667,21.573-23.518L270.333,248.771z"/>
								<path fill="#4983B3" d="M266.357,252.57l-5.188,0.472c0,0-12.73,9.904-15.562,18.391l9.432,15.091l5.188-0.47
									C260.228,286.055,258.342,258.229,266.357,252.57z"/>
								<path fill="#4983B3" d="M260.7,290.297l1.416,19.336l-9.435,4.245c0,0-7.073-12.731-5.186-17.45
									C247.495,296.428,256.455,291.711,260.7,290.297z"/>
								<polygon fill="#4983B3" points="261.643,312.464 265.416,330.855 260.7,333.684 252.681,317.65 								"/>
								<path fill="#3E7AA4" d="M245.906,271.911c0.868-1.931,1.802-4.001,2.761-6.134c4.751-6.692,12.502-12.735,12.502-12.735
									l5.188-0.472c-4.228,2.984-5.698,12.133-6.148,20.114c-3.543,0.371-8.139,1.181-11.97,2.956L245.906,271.911z"/>
							</g>
							<path fill="#355E7F" d="M257.184,343.144c0,0.615,0.499,1.113,1.113,1.113h7.054c0.615,0,1.113-0.498,1.113-1.113l0,0
								c0-0.615-0.498-1.113-1.113-1.113h-7.054C257.682,342.03,257.184,342.528,257.184,343.144L257.184,343.144z"/>
							<path fill="#355E7F" d="M257.184,350.567c0,0.615,0.499,1.113,1.113,1.113h7.054c0.615,0,1.113-0.498,1.113-1.113l0,0
								c0-0.615-0.498-1.113-1.113-1.113h-7.054C257.682,349.454,257.184,349.952,257.184,350.567L257.184,350.567z"/>
						</g>
						<g>
							<path fill="#231F20" d="M271.034,280.619c0.501,3.428,3.375,6.271,6.414,6.311c1.146,0,2.289,0,3.433,0
								c3.041-0.039,5.914-2.883,6.416-6.311c0.073-0.586,0.148-1.17,0.221-1.756c0.502-3.42-2.255-6.874-6.204-7.061
								c-1.432-0.06-2.865-0.06-4.297,0c-3.948,0.19-6.706,3.641-6.204,7.061C270.886,279.449,270.96,280.032,271.034,280.619z"/>
							<polygon fill="#231F20" points="282.496,283.073 288.459,332.171 277.587,344.094 268.82,331.468 275.832,283.073 							"/>
							<path fill="#332C2E" d="M284.879,302.689c-2.898-0.542-6.729-1.803-11.221-4.611l0.944-6.521
								c3.786,2.725,7.027,4.133,9.514,4.854L284.879,302.689z"/>
							<path fill="#332C2E" d="M286.717,317.816c-3.36-0.347-8.626-1.715-15.022-6.188l0.971-6.702
								c5.697,4.574,10.345,6.222,13.31,6.782L286.717,317.816z"/>
							<path fill="#332C2E" d="M271.105,315.687c6.98,6.982,12.83,9.632,16.639,10.603l0.715,5.882l-0.257,0.282
								c-4.232-0.726-10.612-3.018-18.134-9.6L271.105,315.687z"/>
							<path fill="#332C2E" d="M282.242,338.989l-4.119,4.516c-0.528-0.302-1.064-0.615-1.611-0.961l-7.692-11.076l0.417-2.878
								C274.167,333.93,278.599,337.108,282.242,338.989z"/>
						</g>
					</g>
				</g>
				<g>
					<g>
						<path fill="#FADCA0" d="M351.422,188.32c-5.116,1.546-10.584,1.705-15.865,1.318c-0.104-0.14-0.21-0.28-0.325-0.428
							c-2.44-3.267,1.336-19.811,2.451-23.22c2.801-8.583,7.614-14.624,17.123-12.255
							C374.609,158.668,367.365,183.505,351.422,188.32z"/>
						<path fill="#F4D39A" d="M351.336,186.559c-4.578,1.383-9.473,1.526-14.199,1.181c-0.095-0.127-0.189-0.252-0.292-0.384
							c-2.184-2.924,1.195-17.732,2.192-20.783c2.509-7.686,6.818-13.09,15.33-10.97
							C372.095,160.018,365.611,182.249,351.336,186.559z"/>
						<path fill="#EFA470" d="M345.267,162.641c1.383-0.7,3.416-1.1,5.576-1.1c3.265,0,7.3,0.947,8.828,3.609
							c0.11,0.189,0.208,0.41,0.296,0.644c0.252,0.389,0.472,0.814,0.629,1.294c0.725,2.206-0.003,4.429-1.625,4.961
							c-1.624,0.534-3.527-0.823-4.252-3.031c-0.062-0.187-0.098-0.374-0.139-0.558c-0.071-0.011-0.144-0.023-0.216-0.023
							c-0.738,0-1.441,0.405-1.984,1.144c-0.873,1.191-1.12,2.966-0.626,4.522c0.294,0.937,0.986,1.516,1.657,2.076
							c1.669,1.399,2.722,2.743-0.136,6.196c-1.277,1.541-3.587,2.39-6.508,2.39c-1.527,0-3.119-0.241-4.371-0.662
							c-2.95-0.991-4.634-3.254-4.873-6.541C337.135,172.208,340.972,164.818,345.267,162.641z"/>
					</g>
					<g>
						<path fill="#FADCA0" d="M206.005,188.32c5.117,1.546,10.585,1.705,15.865,1.318c0.105-0.14,0.21-0.28,0.326-0.428
							c2.44-3.267-1.336-19.811-2.451-23.22c-2.802-8.583-7.614-14.624-17.124-12.255
							C182.816,158.668,190.061,183.505,206.005,188.32z"/>
						<path fill="#F4D39A" d="M206.089,186.559c4.58,1.383,9.474,1.526,14.202,1.181c0.095-0.127,0.188-0.252,0.292-0.384
							c2.184-2.924-1.195-17.732-2.192-20.783c-2.509-7.686-6.819-13.09-15.328-10.97
							C185.334,160.018,191.818,182.249,206.089,186.559z"/>
						<path fill="#EFA470" d="M212.161,162.641c-1.384-0.7-3.417-1.1-5.577-1.1c-3.266,0-7.297,0.947-8.829,3.609
							c-0.109,0.189-0.206,0.41-0.294,0.644c-0.254,0.389-0.475,0.814-0.63,1.294c-0.726,2.206,0.002,4.429,1.627,4.961
							c1.622,0.534,3.526-0.823,4.251-3.031c0.061-0.187,0.099-0.374,0.139-0.558c0.073-0.011,0.145-0.023,0.215-0.023
							c0.739,0,1.444,0.405,1.985,1.144c0.873,1.191,1.117,2.966,0.628,4.522c-0.296,0.937-0.989,1.516-1.657,2.076
							c-1.671,1.399-2.723,2.743,0.134,6.196c1.276,1.541,3.587,2.39,6.507,2.39c1.527,0,3.119-0.241,4.372-0.662
							c2.95-0.991,4.633-3.254,4.873-6.541C220.292,172.208,216.456,164.818,212.161,162.641z"/>
					</g>
					<path fill="#FADCA0" d="M212.542,165.661c0,37.138,14.132,81.587,67.23,81.587c55.766,0,67.241-44.45,67.241-81.587
						c0-37.12-30.102-67.221-67.241-67.221C242.625,98.44,212.542,128.542,212.542,165.661z"/>
					<path fill="#F4D39A" d="M216.191,165.876c0,36.035,13.367,79.167,63.582,79.167c52.738,0,63.59-43.131,63.59-79.167
						c0-36.02-28.469-65.228-63.59-65.228C244.643,100.648,216.191,129.857,216.191,165.876z"/>
					<g>
						<path fill="#402118" d="M241.592,187.851c0,4.512,3.156,8.165,7.054,8.165c3.896,0,7.052-3.653,7.052-8.165
							c0-4.512-3.156-8.166-7.052-8.166C244.749,179.686,241.592,183.339,241.592,187.851z"/>
						<path fill="#F5F5F5" d="M244.562,186.738c0,1.845,1.496,3.339,3.34,3.339c1.846,0,3.342-1.495,3.342-3.339
							c0-1.848-1.496-3.342-3.342-3.342C246.058,183.396,244.562,184.89,244.562,186.738z"/>
					</g>
					<path fill="#D35E14" d="M294.45,116.144c6.498,21.751-15.515,42.503-50.541,48.438c9.042-2.545,50.845-24.577,44.066-53.105
						c-3.671,18.36-18.643,33.332-59.319,45.76c0.566,2.543-2.823,18.078-2.823,18.078l-3.39-7.909l-9.626-5.781
						c0,0-23.708-60.033,53.973-67.379c-25.985-0.563-42.086,5.649-42.086,5.649s26.271-19.492,51.692-7.061
						c9.038-11.583,34.179-13.842,52.256-5.368c-17.797-4.8-38.416-2.543-43.5,3.954c33.896-5.085,72.597,4.237,70.901,61.58
						c-1.414-16.383-9.407-23.057-9.407-23.057s3.734,0.607,3.168,28.29c-1.978-2.26-7.605,6.912-7.605,6.912
						s0.282,4.518-1.694,11.017c0-16.383-2.257-17.797-2.257-17.797l-2.261,5.651C335.996,164.016,323.547,110.495,294.45,116.144z"
						/>
					<path fill="#D35E14" d="M349.814,158.232c0,0-0.201,31.598-11.087,55.355l-14.849-0.988c0,0,25.739-44.546-7.919-89.091
						C315.959,123.508,325.265,96.938,349.814,158.232z"/>
					<path fill="#D35E14" d="M228.601,148.502c0,0-5.94,37.864,4.454,64.592l-11.136,0.742c0,0-20.045-34.896-11.878-74.986
						L228.601,148.502z"/>
					<path fill="#D35E14" d="M306.554,113.609c0,0,20.045,43.804-31.924,53.453c0,0,27.525-35.313,16.333-51.969
						C290.964,115.093,296.903,95.049,306.554,113.609z"/>
					<path fill="#D35E14" d="M297.646,115.835c0,0-7.425,37.123-56.424,43.804c0,0,39.765-26.666,32.667-46.03
						C273.888,113.609,287.251,86.881,297.646,115.835z"/>
					<path fill="#D35E14" d="M328.827,126.972c0,0,4.455,19.304-26.727,33.409c0,0,13.362-28.954,1.484-38.606
						C303.584,121.774,315.445,88.798,328.827,126.972z"/>
					<path fill="#D35E14" d="M269.433,92.82c0,0-34.893-6.682-63.849,19.304l33.409-0.745L269.433,92.82z"/>
					<path fill="#D35E14" d="M279.085,92.078c0,0,23.757-22.273,70.53,2.971l-23.758,1.484L279.085,92.078z"/>
					<path fill="#D35E14" d="M220.434,129.2c0,0-12.622,11.137-17.075,29.696c0,0-2.228-40.833,24.499-49L220.434,129.2z"/>
					<path fill="#DE6B10" d="M325.115,120.29c0,0,3.712,24.499-17.817,34.151l2.969-14.849c0,0-10.394,20.789-27.47,20.789
						c0,0,20.787-29.696,17.818-40.833c0,0,14.106,2.227,15.591,7.424L325.115,120.29z"/>
					<path fill="#DE6B10" d="M296.161,107.42c0,0,7.423,31.183-29.698,47.517l8.909-8.91l-19.303,6.681
						c0,0,20.789-22.272,11.507-43.059l13.364,7.423L296.161,107.42z"/>
					<path fill="#E9762A" d="M294.228,112.127c0,0,5.954,25.005-23.812,38.1l7.145-7.143l-15.48,5.358
						c0,0,16.669-17.859,9.228-34.527l10.716,5.952L294.228,112.127z"/>
					<path fill="#DE6B10" d="M281.312,93.191c0,0,22.272-14.847,54.94-1.484l-14.848,3.713c0,0,24.87,6.682,30.067,37.12
						c0,0-17.817-18.189-29.696-17.818h-19.303l-4.455-15.221L281.312,93.191z"/>
					<path fill="#DE6B10" d="M283.54,98.759c0,0-28.212-19.673-68.674,10.023l15.59,0.742c0,0-20.045,11.136-23.386,30.812
						l10.395-7.055c0,0-6.683,13.365-4.826,25.615c0,0,34.894-14.107,44.174-24.873c0,0,5.196-17.076,3.712-24.87
						C260.524,109.154,265.722,101.359,283.54,98.759z"/>
					<path fill="#DE6B10" d="M345.532,133.653c0,0,3.712,57.169-5.568,67.932l-8.909,4.084c0,0,11.507-48.627-0.742-66.447
						l6.311,2.6L345.532,133.653z"/>
					<path fill="#DE6B10" d="M223.403,160.134c0,0-5.939,3.464-10.394,3.464c0,0-3.958,24.748,10.394,46.525h4.454
						C227.857,210.124,216.969,171.024,223.403,160.134z"/>
					<path fill="#E9762A" d="M289.727,91.829l11.88,5.939l3.464,13.365c0,0,25.241-7.423,42.07,15.838
						c0,0-16.828-28.705-29.202-30.192l9.899-5.939C327.837,90.84,297.646,83.417,289.727,91.829z"/>
					<path fill="#E9762A" d="M273.888,97.275c0,0-18.314,5.939-18.809,15.342l-0.495,18.809l-38.606,22.272
						c0,0-1.484-22.768,4.455-24.499l-8.415,2.722c0,0,14.848-21.777,21.777-20.789l-11.878-4.455
						C221.918,106.679,251.121,86.388,273.888,97.275z"/>
					<path fill="#E9762A" d="M322.888,126.972c0,0,0.99,13.365-8.909,20.789l-2.475-10.89c0,0-8.414,13.858-19.304,18.313
						l11.384-33.409l10.889,6.188L322.888,126.972z"/>
					<path fill="#E9762A" d="M218.948,166.569h-4.454c0,0-2.971,28.708,8.909,40.09l2.476,0.493
						C225.879,207.153,216.969,183.398,218.948,166.569z"/>
					<path fill="#E9762A" d="M343.675,139.841c0,0,3.961,45.534-4.454,59.888l-4.455,1.979c0,0,5.445-47.514-0.494-57.908
						l5.444,1.979L343.675,139.841z"/>
					<g>
						<path fill="#D35E14" d="M235.815,178.697c-0.577-0.01-1.089-0.093-1.514-0.267c-12.963-5.247,30.869-20.815,30.556-10.07
							c-0.155,5.309-9.406,5.48-14.455,6.438C247.102,175.425,239.842,178.78,235.815,178.697z"/>
						<path fill="#DE6B10" d="M237.096,177.114c-0.509,0.008-0.959-0.036-1.323-0.153c-11.265-3.498,27.762-16.222,27.181-8.29
							c-0.288,3.918-8.434,4.307-12.907,5.153C247.123,174.379,240.639,177.062,237.096,177.114z"/>
					</g>
					<g>
						<path fill="#402118" d="M321.031,187.851c0,4.512-3.156,8.165-7.052,8.165s-7.054-3.653-7.054-8.165
							c0-4.512,3.158-8.166,7.054-8.166S321.031,183.339,321.031,187.851z"/>
						<path fill="#F5F5F5" d="M318.062,186.738c0,1.845-1.494,3.339-3.34,3.339s-3.341-1.495-3.341-3.339
							c0-1.848,1.495-3.342,3.341-3.342S318.062,184.89,318.062,186.738z"/>
					</g>
					<g>
						<path fill="#D35E14" d="M326.457,179.26c0.579,0.016,1.094-0.044,1.523-0.197c13.191-4.645-29.878-22.21-30.06-11.46
							c-0.088,5.309,9.144,5.905,14.143,7.091C315.332,175.474,322.431,179.159,326.457,179.26z"/>
						<path fill="#DE6B10" d="M325.25,177.623c0.51,0.028,0.96,0.005,1.331-0.093c11.411-2.979-26.989-17.478-26.772-9.533
							c0.109,3.931,8.228,4.691,12.657,5.742C315.359,174.431,321.716,177.407,325.25,177.623z"/>
					</g>
					<path fill="#DDB171" d="M294.885,198.94c0,0-12.526,18.326-28.63,1.868C266.255,200.809,280.124,226.618,294.885,198.94z"/>
					<ellipse fill="#F9E7CE" cx="284.096" cy="201.958" rx="4.269" ry="2.598"/>
					<ellipse fill="#FAEAAF" cx="317.196" cy="205.422" rx="7.672" ry="4.206"/>
					<ellipse fill="#FAEAAF" cx="244.438" cy="205.422" rx="7.672" ry="4.206"/>
					<path fill-rule="evenodd" clip-rule="evenodd" fill="#B01917" d="M278.376,215.943c-13.807-2.423-30.763,5.016-25.654,13.627
						c2.852,4.813,8.634,2.584,25.344,4.608c13.916,1.687,21.665,4.377,24.501,1.424
						C306.867,231.123,299.261,219.612,278.376,215.943z"/>
				</g>
			</g>
		</g>
	</g>
</g>
</svg>
